<svg width="60" height="81" viewBox="0 0 60 81" fill="none" xmlns="http://www.w3.org/2000/svg">
<path d="M60 29.8421C60 46.3234 30 65.0132 30 70.3421C30 65.0132 0 46.3234 0 29.8421C0 13.3608 13.4315 0 30 0C46.5685 0 60 13.3608 60 29.8421Z" fill="#1B1B6F"/>
<path d="M34.2857 76.7368C34.2857 79.0913 32.3669 81 30 81C27.6331 81 25.7143 79.0913 25.7143 76.7368C25.7143 74.3824 27.6331 72.4737 30 72.4737C32.3669 72.4737 34.2857 74.3824 34.2857 76.7368Z" fill="#1B1B6F"/>
<path d="M39 30C39 29.0289 38.9977 28.401 38.9355 27.9385C38.8772 27.5049 38.7831 27.3691 38.707 27.293C38.6309 27.2169 38.495 27.1228 38.0615 27.0645C37.599 27.0023 36.9711 27 36 27H33V39H36C36.9711 39 37.599 38.9977 38.0615 38.9355C38.495 38.8772 38.6309 38.7832 38.707 38.707C38.7832 38.6309 38.8772 38.495 38.9355 38.0615C38.9977 37.599 39 36.9711 39 36V30ZM24.5 32C25.0523 32 25.5 32.4477 25.5 33C25.5 33.5523 25.0523 34 24.5 34H23.5C22.9477 34 22.5 33.5523 22.5 33C22.5 32.4477 22.9477 32 23.5 32H24.5ZM28.5 32C29.0523 32 29.5 32.4477 29.5 33C29.5 33.5523 29.0523 34 28.5 34H27.5C26.9477 34 26.5 33.5523 26.5 33C26.5 32.4477 26.9477 32 27.5 32H28.5ZM36.5 32C37.0523 32 37.5 32.4477 37.5 33C37.5 33.5523 37.0523 34 36.5 34H35.5C34.9477 34 34.5 33.5523 34.5 33C34.5 32.4477 34.9477 32 35.5 32H36.5ZM24.5 28C25.0523 28 25.5 28.4477 25.5 29C25.5 29.5523 25.0523 30 24.5 30H23.5C22.9477 30 22.5 29.5523 22.5 29C22.5 28.4477 22.9477 28 23.5 28H24.5ZM28.5 28C29.0523 28 29.5 28.4477 29.5 29C29.5 29.5523 29.0523 30 28.5 30H27.5C26.9477 30 26.5 29.5523 26.5 29C26.5 28.4477 26.9477 28 27.5 28H28.5ZM36.5 28C37.0523 28 37.5 28.4477 37.5 29C37.5 29.5523 37.0523 30 36.5 30H35.5C34.9477 30 34.5 29.5523 34.5 29C34.5 28.4477 34.9477 28 35.5 28H36.5ZM24.5 24C25.0523 24 25.5 24.4477 25.5 25C25.5 25.5523 25.0523 26 24.5 26H23.5C22.9477 26 22.5 25.5523 22.5 25C22.5 24.4477 22.9477 24 23.5 24H24.5ZM28.5 24C29.0523 24 29.5 24.4477 29.5 25C29.5 25.5523 29.0523 26 28.5 26H27.5C26.9477 26 26.5 25.5523 26.5 25C26.5 24.4477 26.9477 24 27.5 24H28.5ZM41 36C41 36.9145 41.0022 37.7014 40.918 38.3281C40.8298 38.9835 40.6307 39.6115 40.1211 40.1211C39.6115 40.6307 38.9835 40.8298 38.3281 40.918C37.7014 41.0022 36.9145 41 36 41H26C24.6142 41 23.4742 41.0017 22.5752 40.8809C21.6474 40.7561 20.828 40.4842 20.1719 39.8281C19.5158 39.172 19.2439 38.3526 19.1191 37.4248C18.9983 36.5258 19 35.3858 19 34V26C19 24.6142 18.9983 23.4742 19.1191 22.5752C19.2439 21.6474 19.5158 20.828 20.1719 20.1719C20.828 19.5158 21.6474 19.2439 22.5752 19.1191C23.4742 18.9983 24.6142 19 26 19C27.3858 19 28.5258 18.9983 29.4248 19.1191C30.3526 19.2439 31.172 19.5158 31.8281 20.1719C32.4842 20.828 32.7561 21.6474 32.8809 22.5752C32.9713 23.2479 32.9929 24.0554 32.998 25H36C36.9145 25 37.7014 24.9978 38.3281 25.082C38.9835 25.1702 39.6115 25.3693 40.1211 25.8789C40.6307 26.3885 40.8298 27.0165 40.918 27.6719C41.0022 28.2986 41 29.0855 41 30V36ZM21 34C21 35.4422 21.0018 36.4234 21.1006 37.1582C21.1955 37.8643 21.3634 38.1915 21.5859 38.4141C21.8085 38.6366 22.1358 38.8045 22.8418 38.8994C23.5766 38.9982 24.5578 39 26 39H31V26C31 24.5578 30.9982 23.5766 30.8994 22.8418C30.8045 22.1358 30.6366 21.8085 30.4141 21.5859C30.1915 21.3634 29.8643 21.1955 29.1582 21.1006C28.4234 21.0018 27.4422 21 26 21C24.5578 21 23.5766 21.0018 22.8418 21.1006C22.1357 21.1955 21.8085 21.3634 21.5859 21.5859C21.3634 21.8085 21.1955 22.1357 21.1006 22.8418C21.0018 23.5766 21 24.5578 21 26V34Z" fill="#16FBFF"/>
</svg>
