<svg width="201" height="238" viewBox="0 0 201 238" fill="none" xmlns="http://www.w3.org/2000/svg">
<path d="M119.75 137.015C119.015 137.015 118.647 136.647 118.279 136.279L110.926 126.721C109.823 125.25 109.456 123.412 109.456 121.574C110.191 115.324 118.279 113.485 121.956 118.265L132.618 132.235C133.353 132.971 132.985 134.074 132.25 134.809C131.515 135.544 130.412 135.176 129.676 134.441L119.015 120.471C117.912 119 115.706 118.632 114.235 119.735C112.765 120.838 112.397 123.044 113.5 124.515L120.853 134.074C121.588 134.809 121.221 135.912 120.485 136.647C120.485 136.647 120.118 137.015 119.75 137.015Z" fill="#0F0F3E"/>
<path d="M189.603 224.882L179.676 231.132C176.368 233.338 171.588 232.235 169.382 228.926L115.706 144C113.5 140.691 114.603 135.912 117.912 133.706L127.838 127.456C131.147 125.25 135.926 126.353 138.132 129.662L192.176 214.221C194.015 217.897 193.279 222.676 189.603 224.882Z" fill="#16FBFF"/>
<path d="M119.382 181.868C119.75 182.235 123.794 185.176 123.794 184.441C123.426 185.176 123.426 186.279 123.426 187.382C123.426 187.75 124.529 188.853 124.529 189.221C123.794 191.794 123.426 193.265 124.162 195.471C125.632 199.882 130.412 206.132 136.294 207.603C134.824 217.529 141.441 224.882 149.162 225.618C149.162 230.765 154.676 236.647 164.235 235.176C168.647 234.441 171.588 232.971 183.353 228.559C188.868 226.353 192.544 223.412 195.485 218.632C197.324 215.691 198.794 213.118 199.897 209.809C202.838 199.515 195.485 197.676 194.75 192.529C194.382 190.691 195.118 188.853 195.485 187.015C195.853 184.074 195.485 181.132 194.015 178.559C192.176 175.618 189.235 173.779 187.765 170.838C185.926 166.794 188.132 161.647 185.926 157.603C183.353 152.456 176 152.456 171.588 148.779C167.912 145.471 167.176 139.588 162.765 137.015C157.985 134.074 152.103 136.647 146.956 138.853C142.912 140.691 138.868 142.529 134.824 144.735C131.147 146.574 127.838 148.779 124.529 151.353C120.853 153.926 117.176 157.235 114.971 161.279C113.132 167.897 115.706 175.25 119.382 181.868Z" fill="#F9BB98"/>
<path d="M151.368 226.353C143.647 226.353 135.191 214.956 134.088 207.603C134.088 206.5 134.823 205.765 135.559 205.397C136.662 205.397 137.397 206.132 137.765 206.868C138.5 212.75 146.22 222.309 151.368 222.309C151.735 222.309 154.676 222.677 161.662 218.632C167.176 215.324 172.323 211.279 176.735 206.5C177.47 205.765 178.573 205.765 179.309 206.5C180.044 207.235 180.044 208.338 179.309 209.074C173.059 216.427 160.559 226.353 151.368 226.353Z" fill="#0F0F3E"/>
<path d="M128.206 202.088C123.426 195.103 121.956 188.853 123.426 182.971C123.794 181.868 124.897 181.5 125.632 181.868C126.735 182.235 127.103 183.338 126.735 184.074C125.265 188.485 126.735 193.632 130.779 199.882C134.088 204.662 135.559 205.765 140.338 203.926C150.632 200.618 158.353 192.897 167.176 183.706C167.912 182.971 169.015 182.971 169.75 183.706C170.485 184.441 170.485 185.544 169.75 186.279C160.926 195.471 152.471 203.559 141.441 207.235C135.191 209.809 132.25 207.971 128.206 202.088ZM156.882 237.015C151.735 235.544 146.588 230.765 146.956 224.882C146.956 223.779 147.691 223.044 148.794 223.044C149.897 223.044 150.632 223.779 150.632 224.882C150.632 228.926 154.309 232.603 157.985 233.338C166.809 235.912 176 229.294 185.191 227.088C186.294 226.721 187.029 227.456 187.397 228.559C187.765 229.662 187.029 230.397 185.926 230.765C181.515 231.868 177.103 234.074 172.324 235.544C168.279 237.015 162.029 238.485 156.882 237.015ZM134.088 145.471C134.824 145.471 138.868 143.632 139.603 143.632C142.544 143.265 147.324 141.059 149.162 137.75C145.485 139.588 138.132 143.265 134.088 145.471Z" fill="#0F0F3E"/>
<path d="M145.118 225.618C138.132 237.382 128.573 222.677 119.75 219.368C114.235 217.529 108.353 218.632 106.882 205.397C104.309 185.912 118.279 176.721 123.794 181.868C128.941 186.279 123.059 195.471 130.412 201.353C132.985 203.191 135.926 203.927 138.5 205.397C145.118 209.074 149.162 218.265 145.118 225.618Z" fill="#F9BB98"/>
<path d="M140.338 219.368C139.603 217.897 138.868 217.529 131.882 212.75C130.044 211.647 129.309 211.647 128.206 213.485C127.103 215.324 126 217.162 124.897 218.632C124.162 220.103 123.794 220.471 124.897 221.941C127.103 224.882 129.676 227.456 132.985 228.927C134.824 230.029 135.559 229.294 137.029 227.824C139.235 225.985 141.441 221.941 140.338 219.368Z" fill="white"/>
<path d="M137.397 231.132C133.721 231.132 129.677 229.294 126.735 226.721C124.162 224.147 121.956 221.941 119.382 221.206C115.338 219.735 106.515 221.206 104.309 208.338C103.206 200.985 104.676 193.265 108.721 187.382C109.456 186.647 110.559 186.279 111.294 187.015C112.029 187.75 112.397 188.853 111.662 189.588C107.985 195.103 106.515 201.721 107.618 207.971C109.088 217.897 114.971 216.059 120.485 217.897C123.794 219 126.368 221.574 128.941 224.147C135.191 229.662 142.544 228.927 144.382 221.206C146.221 213.853 142.177 207.235 135.927 205.765C133.353 205.397 131.147 204.662 129.309 203.927C126.368 202.456 125.632 200.25 124.897 198.044C123.794 193.265 122.324 188.853 122.691 184.809C122.691 182.235 126.368 182.603 126.368 185.177C126 188.118 127.103 191.794 127.838 194.735C129.309 200.985 128.574 200.985 136.662 202.456C140.706 203.559 144.382 206.132 146.588 210.177C151.735 218.265 147.324 231.132 137.397 231.132Z" fill="#0F0F3E"/>
<path d="M125.632 185.177C123.059 185.177 120.853 183.706 119.015 181.5C117.544 179.662 116.441 177.456 115.706 175.25C113.5 168.632 113.5 163.118 115.706 159.074C117.176 155.765 120.117 153.559 122.323 151.721C133.353 143.632 144.015 141.794 147.691 138.118C147.323 137.015 148.426 135.544 149.529 135.912H149.897C150.632 135.912 151.367 136.647 151.367 137.382C151.367 138.853 150.632 140.324 149.162 141.427C146.22 143.632 142.912 144.735 139.97 146.206C133.353 148.779 121.956 154.662 119.015 160.544C117.176 163.853 117.544 168.265 119.382 173.779C120.485 177.088 122.323 180.765 126 181.132C127.47 181.132 129.309 180.397 130.779 179.294C139.603 173.779 147.323 167.162 153.941 159.074C154.676 158.338 155.779 158.338 156.514 158.706C157.25 159.441 157.25 160.544 156.882 161.279C149.897 169.735 141.809 176.721 132.617 182.235C130.412 184.074 128.206 185.177 125.632 185.177Z" fill="#0F0F3E"/>
<path d="M79.6764 135.176C116.834 135.176 146.956 105.054 146.956 67.8971C146.956 30.7397 116.834 0.617676 79.6764 0.617676C42.519 0.617676 12.397 30.7397 12.397 67.8971C12.397 105.054 42.519 135.176 79.6764 135.176Z" fill="#3838CF"/>
<path d="M79.6763 120.838C108.915 120.838 132.617 97.1357 132.617 67.8971C132.617 38.6585 108.915 14.9559 79.6763 14.9559C50.4377 14.9559 26.7351 38.6585 26.7351 67.8971C26.7351 97.1357 50.4377 120.838 79.6763 120.838Z" fill="white"/>
<path d="M71.5883 137.382C71.2206 137.382 71.2206 137.382 71.5883 137.382C49.1618 134.074 28.5736 119.735 18.2794 99.8824C7.98531 80.0294 7.61767 55.0294 17.9118 35.1765C18.2794 34.4412 19.3824 34.0736 20.4853 34.4412C21.2206 34.8088 21.5883 35.9118 21.2206 37.0147C11.6618 56.1324 11.6618 79.6618 21.5883 98.4118C31.5147 117.162 50.6324 130.765 71.9559 134.074C73.0588 134.074 73.7941 135.176 73.4265 136.279C73.0588 136.647 72.3236 137.382 71.5883 137.382ZM148.794 67.1618C147.691 67.1618 146.956 66.4265 146.956 65.3235C147.324 40.6912 131.882 18.2647 108.721 9.4412C107.618 9.07355 107.25 7.97061 107.618 7.23532C107.985 6.13237 109.088 5.76473 109.824 6.13237C134.456 15.3236 150.632 39.2206 150.265 65.6912C150.632 66.4265 149.897 67.1618 148.794 67.1618Z" fill="#0F0F3E"/>
<path d="M54.6764 34.8088C61.6617 38.1176 68.647 41.4264 75.6323 45.1029C77.8381 35.1764 84.0882 25.9853 92.544 19.3676L94.7499 50.25C103.573 44.7353 113.132 40.6911 123.059 38.1176C116.073 43.2647 110.926 50.25 107.25 57.9706C112.397 58.7058 117.912 59.0735 123.059 59.8088C116.073 62.0147 108.72 64.2206 101.735 66.7941C105.412 74.5147 107.25 83.3382 107.25 91.7941C104.676 85.1764 102.103 78.1911 99.5293 71.5735C97.3234 84.4411 93.2793 96.9411 88.1323 108.706C84.4558 100.985 80.7793 93.2647 77.4705 85.5441C75.6323 81.1323 73.4264 80.397 69.0146 83.3382C59.4558 89.9558 49.897 96.9411 39.9705 103.559L64.2352 72.6764L39.9705 69.3676C46.5881 67.5294 53.5734 66.0588 60.1911 64.2206C55.4117 59.0735 48.794 55.0294 41.4411 53.5588H68.2793C65.3381 45.8382 60.5587 41.0588 54.6764 34.8088ZM1.7352 25.6176C0.632263 24.8823 0.632263 23.7794 0.99991 23.0441C1.36756 22.3088 2.4705 21.9411 3.57344 22.3088C5.77932 23.7794 8.35285 24.5147 11.294 24.5147C12.397 24.5147 13.1323 25.25 13.1323 26.3529C13.1323 27.4559 12.397 28.1912 11.294 28.1912C7.61756 28.1912 4.67638 27.0882 1.7352 25.6176ZM16.8087 20.8382L7.61756 14.2206C6.88226 13.8529 6.51462 12.75 7.24991 11.647C7.9852 10.9117 9.08814 10.9117 9.82344 11.2794L19.0146 17.897C19.7499 18.2647 20.1176 19.7353 19.3823 20.4706C18.647 21.2059 17.544 21.5735 16.8087 20.8382ZM21.9558 15.3235L20.8528 9.8088C20.4852 8.70586 21.2205 7.97056 22.3234 7.60292C23.0587 7.23527 23.794 7.97056 24.1617 8.70586L25.2646 14.2206C25.6323 15.3235 24.897 16.0588 23.794 16.4264C23.0587 16.7941 21.9558 16.0588 21.9558 15.3235Z" fill="#0F0F3E"/>
</svg>
