<svg width="108" height="40" viewBox="0 0 108 40" fill="none" xmlns="http://www.w3.org/2000/svg">
<path d="M10.8506 0.00120823C20.6485 0.474753 27.4719 9.96624 24.4648 19.4388C24.2711 20.0497 24.0105 20.6382 23.7653 21.2267C23.0538 21.2267 22.3389 21.2267 21.6257 21.2267V22.3779C22.1332 22.3779 22.6407 22.3762 23.1481 22.3779C21 26.0788 17.2248 28.7588 12.997 29.5223C12.1827 29.6698 11.4506 29.7144 10.6243 29.7419C10.5214 29.7453 9.86307 29.8603 9.86307 29.7213V24.6822C12.9559 24.8108 15.939 23.464 17.8831 21.0825C21.5863 16.5427 20.4805 9.79638 15.5772 6.64799C14.1114 5.70777 12.4296 5.18961 10.686 5.10211V0.00120823C10.7391 0.00292397 10.7957 -0.00222325 10.8506 0.00120823Z" fill="#0F0F3E"/>
<path d="M79.9075 21.5149L86.592 4.56851C87.5092 2.09956 89.4465 0.98776 92.0182 0.864226C94.7407 0.73383 97.0586 1.45273 98.2587 4.04693L108 29.6612H102.488L93.9126 6.87275C93.4651 5.62712 91.6701 5.6357 91.1421 6.81613L84.0221 24.9309C83.7975 24.9292 83.0706 24.9721 82.93 24.8915C81.9528 23.7985 80.9687 22.7125 79.9675 21.6401C79.9246 21.5938 79.9178 21.5252 79.9092 21.5149H79.9075Z" fill="#0F0F3E"/>
<path d="M28.9069 21.4325L35.5914 4.48616C36.6492 1.61229 39.2105 0.72182 42.0908 0.862511C44.4395 0.977465 46.2071 1.8748 47.2169 4.04521L56.9582 29.6595H51.4464L42.8708 6.87104C42.4165 5.56707 40.4844 5.65458 40.0592 6.93795L32.9786 24.9292C32.7712 24.9275 32.1883 24.9704 32.0511 24.8898L28.9069 21.4325Z" fill="#0F0F3E"/>
<path d="M77.5639 1.36008V6.33744H69.2969V29.6595H64.32V6.33744H56.053V1.36008H77.5639Z" fill="#0F0F3E"/>
<path d="M9.7722 10.4209C14.2811 10.0006 16.5905 15.5424 13.153 18.3682C9.98994 20.971 5.29413 18.3168 5.83589 14.259C6.0982 12.3014 7.78519 10.6045 9.77049 10.4192L9.7722 10.4209ZM13.2645 13.2107C12.9559 13.2896 13.2216 14.2196 13.2353 14.4615C13.2713 15.0689 13.0245 15.5355 13.0262 16.0245C13.0262 16.3128 13.2353 16.4226 13.4805 16.2682C13.9365 15.9816 14.0668 14.9522 14.012 14.4649C13.9811 14.187 13.6382 13.1163 13.2628 13.2107H13.2645Z" fill="#0F0F3E"/>
<path d="M23.7653 21.2284C25.4094 21.2249 27.0621 21.2129 28.6994 21.249L28.9052 21.4343L32.0494 24.8915C32.1883 24.9704 32.7712 24.9275 32.9769 24.9309C34.8456 24.9515 36.7161 24.9206 38.5848 24.9241L40.0095 22.6061L43.3234 22.5838C43.4589 22.5769 43.5 22.7022 43.5652 22.7948C44.1258 23.6115 44.5612 24.5706 45.1219 25.3959L45.1356 25.5486L43.4246 28.3659H40.0095L38.5848 26.0479C36.5652 26.0239 34.5439 26.0582 32.5243 26.041C32.3014 26.0393 31.5728 26.0822 31.4322 26.0016C30.4207 24.9412 29.4829 23.8088 28.4731 22.7485C28.4423 22.7159 28.3788 22.7159 28.3703 22.7091C28.3085 22.6439 28.2314 22.4002 28.1028 22.3796C26.4501 22.3762 24.7974 22.3865 23.1464 22.3796C22.6389 22.3779 22.1315 22.3796 21.624 22.3796V21.2284C22.3355 21.2284 23.0504 21.2284 23.7636 21.2284H23.7653Z" fill="#00B6B9"/>
<path d="M79.9075 21.5149C79.9161 21.5235 79.9229 21.5938 79.9658 21.6401C80.9653 22.7125 81.9511 23.7968 82.9283 24.8915C83.0689 24.9721 83.7975 24.9292 84.0204 24.9309C85.8342 24.9464 87.6498 24.9258 89.462 24.9224C89.63 24.8709 90.6758 22.8789 90.8884 22.6061L94.2435 22.5838L94.3806 22.6524C94.835 23.4726 95.3819 24.2464 95.831 25.0682C95.9185 25.2295 96.0762 25.4096 96.011 25.5915L94.3789 28.3212L94.2418 28.3899L90.8952 28.3779L89.5014 26.0393C87.5229 26.0324 85.5428 26.0547 83.5643 26.041C83.1546 26.0376 82.7397 26.0616 82.33 26.0204C81.387 24.9618 80.4372 23.9066 79.4703 22.872C79.4394 22.8394 79.3709 22.836 79.3674 22.8326C79.3589 22.8206 79.3743 22.7382 79.328 22.6885C79.2869 22.6439 79.04 22.3796 79.0177 22.3796H72.5389V21.2284H79.592C79.676 21.3365 79.8115 21.424 79.9006 21.5166L79.9075 21.5149Z" fill="#00B6B9"/>
<path d="M32.526 26.041L31.127 29.6612H25.6563L28.3703 22.7091C28.3703 22.7091 28.4423 22.7176 28.4731 22.7485C29.4829 23.8088 30.4224 24.9412 31.4322 26.0016C31.5728 26.0822 32.3014 26.0393 32.5243 26.041H32.526Z" fill="#0F0F3E"/>
<path d="M83.5678 26.041L82.1688 29.6612H76.6981L79.3709 22.8326C79.3709 22.8326 79.4429 22.8394 79.4737 22.872C80.4407 23.9066 81.3904 24.9618 82.3334 26.0204C82.7414 26.0616 83.1563 26.0376 83.5678 26.041Z" fill="#0F0F3E"/>
<path d="M3.2334 13.0889L4.26891 14.875L4.23805 15.0037L3.2454 16.6748C3.15968 16.752 1.33725 16.6868 1.06123 16.6799L0 14.9076L1.04065 13.1249L1.16238 13.082L3.23511 13.0906L3.2334 13.0889Z" fill="#00B6B9"/>
<path d="M8.13493 39.9437V35.4399C8.13493 35.4399 8.19151 35.3781 8.19665 35.3781H10.4185C10.458 35.3781 10.7066 35.4244 10.77 35.4381C11.9255 35.6698 12.2513 36.9017 11.262 37.5794C12.325 37.9757 12.3918 39.4187 11.2723 39.8116C11.1712 39.8476 10.8317 39.9437 10.7477 39.9437H8.13493ZM8.79327 35.9134V37.3323C8.79327 37.3323 8.84984 37.3941 8.85499 37.3941H10.3362C10.4631 37.3941 10.8677 37.2517 10.9723 37.1659C11.2243 36.9617 11.2552 36.4693 11.058 36.2205C10.9534 36.0901 10.5763 35.9134 10.4203 35.9134H8.79327ZM8.79327 39.4084H10.7066C10.8146 39.4084 11.1815 39.2316 11.262 39.1407C11.5141 38.8559 11.4746 38.3137 11.1592 38.0907C11.0512 38.0135 10.6637 37.8848 10.542 37.8848H8.85499C8.85499 37.8848 8.79327 37.9414 8.79327 37.9466V39.4084Z" fill="black"/>
<path d="M74.4368 38.7512V35.3781H75.0334C75.0334 35.3781 75.0951 35.4347 75.0951 35.4399V39.9437H74.5191C74.5191 39.9437 74.5105 39.8613 74.4796 39.8407L71.8463 36.6117V39.9437H71.1468V35.4399C71.1468 35.3558 71.656 35.3386 71.7245 35.4381C72.652 36.5225 73.4973 37.684 74.4368 38.7512Z" fill="black"/>
<path d="M34.4582 38.7512V35.3781H35.0548C35.0548 35.3781 35.1165 35.4347 35.1165 35.4399V39.9437H34.5405C34.5405 39.9437 34.5319 39.8613 34.501 39.8407L31.8677 36.6117V39.9437H31.1682V35.4399C31.1682 35.3558 31.6774 35.3386 31.7459 35.4381C32.6735 36.5225 33.5187 37.684 34.4582 38.7512Z" fill="black"/>
<path d="M91.9513 35.3489C95.4796 35.0075 95.5824 40.3143 91.8981 39.9849C89.1671 39.7395 89.0505 35.6303 91.9513 35.3489ZM90.9449 36.4213C90.7203 36.646 90.5095 37.0578 90.4786 37.3735C90.2077 40.1067 94.1955 40.0586 93.976 37.4541C93.8526 35.9855 91.9479 35.4176 90.9449 36.4213Z" fill="black"/>
<path d="M65.7515 35.3489C69.2798 35.0075 69.3826 40.3143 65.6983 39.9849C62.9673 39.7395 62.8507 35.6303 65.7515 35.3489ZM64.7451 36.4213C64.5205 36.646 64.3097 37.0578 64.2788 37.3735C64.0079 40.1067 67.9957 40.0586 67.7762 37.4541C67.6528 35.9855 65.7481 35.4176 64.7451 36.4213Z" fill="black"/>
<path d="M87.4355 39.9437H86.736L85.7691 38.5453H84.4113C84.4113 38.5453 84.3495 38.602 84.3495 38.6071V39.9437H83.7324V35.4193H86.0142C86.0777 35.4193 86.4531 35.5565 86.5371 35.596C87.7647 36.1639 87.6292 37.95 86.4069 38.4424L87.4338 39.9437H87.4355ZM84.3495 38.01H85.8102C85.8445 38.01 86.184 37.8899 86.2371 37.8625C86.9332 37.509 86.9178 36.4178 86.2097 36.0884C86.1428 36.0575 85.8205 35.9546 85.7691 35.9546H84.3495V38.0118V38.01Z" fill="black"/>
<path d="M41.4101 35.9546H38.8608V37.3529H41.1221C41.1101 37.4421 41.1633 37.9294 41.0604 37.9294H38.8591V39.3689H41.4907V39.9454H38.1596V35.4416C38.1596 35.4416 38.2162 35.3798 38.2213 35.3798H41.3467C41.4496 35.3798 41.3964 35.8671 41.4084 35.9563L41.4101 35.9546Z" fill="black"/>
<path d="M52.9259 35.7092C52.9431 35.7332 52.7579 36.2257 52.6962 36.2394C52.1887 35.8894 50.7469 35.6749 50.4366 36.3217C49.9685 37.2963 51.7361 37.3821 52.3104 37.6206C52.9722 37.8951 53.3151 38.4098 53.0425 39.1321C52.643 40.189 50.9595 40.1255 50.104 39.7447C49.6274 39.5319 49.5108 39.4118 49.8691 38.9588C50.4829 39.3552 51.2698 39.5834 51.9916 39.3569C52.5059 39.1956 52.6842 38.5865 52.2024 38.264C51.4961 37.7921 49.8331 37.998 49.7217 36.797C49.5691 35.1499 51.9093 35.0744 52.9293 35.7092H52.9259Z" fill="black"/>
<path d="M47.1672 35.7092C47.1843 35.7332 46.9992 36.2257 46.9374 36.2394C46.43 35.8894 44.9881 35.6749 44.6778 36.3217C44.2098 37.2963 45.9774 37.3821 46.5517 37.6206C47.2135 37.8951 47.5563 38.4098 47.2837 39.1321C46.8843 40.189 45.2007 40.1255 44.3452 39.7447C43.8686 39.5319 43.752 39.4118 44.1104 38.9588C44.7241 39.3552 45.511 39.5834 46.2328 39.3569C46.7471 39.1956 46.9254 38.5865 46.4437 38.264C45.7373 37.7921 44.0744 37.998 43.9629 36.797C43.8103 35.1499 46.1505 35.0744 47.1706 35.7092H47.1672Z" fill="black"/>
<path d="M24.5865 35.7092C24.6037 35.7332 24.4185 36.2257 24.3568 36.2394C23.8493 35.8894 22.4075 35.6749 22.0972 36.3217C21.6291 37.2963 23.3967 37.3821 23.971 37.6206C24.6328 37.8951 24.9757 38.4098 24.7031 39.1321C24.3036 40.189 22.6201 40.1255 21.7646 39.7447C21.288 39.5319 21.1714 39.4118 21.5297 38.9588C22.1435 39.3552 22.9304 39.5834 23.6522 39.3569C24.1665 39.1956 24.3448 38.5865 23.863 38.264C23.1567 37.7921 21.4937 37.998 21.3823 36.797C21.2297 35.1499 23.5699 35.0744 24.5899 35.7092H24.5865Z" fill="black"/>
<path d="M15.4161 35.4193V38.1542C15.4161 38.415 15.5944 38.9108 15.7864 39.0995C16.2664 39.5696 17.3877 39.5285 17.7683 38.9434C17.8454 38.8233 18.0066 38.4047 18.0066 38.2777V35.4193H18.6238V38.3601C18.6238 39.5336 17.4477 40.0706 16.4242 39.9849C15.6595 39.9197 14.7989 39.2625 14.7989 38.4424V35.4193H15.4161Z" fill="black"/>
<path d="M59.2933 35.3489C60.0236 35.2751 60.8328 35.481 61.3163 36.0575L60.8911 36.4453C60.0356 35.5445 58.3486 35.8448 57.9423 37.0424C57.488 38.3892 58.5012 39.5696 59.8933 39.4049C60.3031 39.3569 60.6202 39.139 60.9203 38.8782C60.9906 38.952 61.3249 39.2316 61.3129 39.302C60.5757 40.1427 59.0121 40.2148 58.136 39.5679C56.413 38.2983 57.1434 35.5685 59.2933 35.3506V35.3489Z" fill="black"/>
<path d="M81.2653 35.4193V35.9546H79.7017V39.9454H79.0845V36.0163C79.0845 36.0163 79.028 35.9546 79.0228 35.9546H77.521V35.4193H81.2653Z" fill="black"/>
<path d="M97.9638 35.4193V39.3672H100.433V39.9437H97.3466V35.4193H97.9638Z" fill="black"/>
<path d="M28.0839 35.4193H27.4668V39.9437H28.0839V35.4193Z" fill="black"/>
<path d="M13.2645 13.2107C13.6382 13.1163 13.9828 14.187 14.0137 14.4649C14.0685 14.9522 13.9365 15.9816 13.4822 16.2682C13.2371 16.4226 13.0296 16.3128 13.0279 16.0245C13.0279 15.5355 13.2713 15.0689 13.2371 14.4615C13.2233 14.2196 12.9576 13.2896 13.2662 13.2107H13.2645Z" fill="#DEDEED"/>
</svg>
