<svg width="1001" height="276" viewBox="0 0 1001 276" fill="none" xmlns="http://www.w3.org/2000/svg">
<g opacity="0.8">
<path d="M100.918 0.0111942C191.695 4.39855 254.913 92.3364 227.053 180.099C225.258 185.758 222.844 191.211 220.572 196.663C213.98 196.663 207.357 196.663 200.749 196.663V207.33C205.451 207.33 210.152 207.314 214.854 207.33C194.951 241.618 159.975 266.448 120.805 273.521C113.26 274.889 106.478 275.302 98.8215 275.556C97.8685 275.588 91.769 276.653 91.769 275.365V228.678C120.424 229.87 148.062 217.392 166.074 195.328C200.384 153.267 190.139 90.7627 144.71 61.5931C131.13 52.882 115.547 48.0813 99.3933 47.2706V0.0111942C99.8857 0.0270904 100.41 -0.0205983 100.918 0.0111942Z" fill="white"/>
<path d="M740.725 199.334L802.657 42.3269C811.155 19.4523 829.104 9.15152 852.93 8.00699C878.153 6.79888 899.628 13.4594 910.747 37.4945L1001 274.809H949.933L870.481 63.6755C866.336 52.1349 849.705 52.2144 844.813 63.151L778.847 230.983C776.766 230.967 770.031 231.365 768.729 230.618C759.675 220.492 750.557 210.429 741.281 200.494C740.884 200.065 740.82 199.429 740.741 199.334H740.725Z" fill="white"/>
<path d="M268.208 198.571L330.14 41.5639C339.94 14.9377 363.671 6.6876 390.356 7.99109C412.117 9.05614 428.494 17.3699 437.849 37.4786L528.102 274.793H477.035L397.583 63.6596C393.374 51.5785 375.473 52.3892 371.534 64.2796L305.933 230.967C304.011 230.951 298.61 231.349 297.34 230.602L268.208 198.571Z" fill="white"/>
<path d="M719.012 12.601V58.7159H642.419V274.793H596.308V58.7159H519.715V12.601H719.012Z" fill="white"/>
<path d="M90.9272 96.5489C132.702 92.6543 154.098 143.999 122.25 170.18C92.9444 194.295 49.4382 169.703 54.4575 132.109C56.8878 113.971 72.5176 98.2498 90.9113 96.533L90.9272 96.5489ZM123.283 122.396C120.424 123.127 122.886 131.743 123.013 133.984C123.346 139.612 121.059 143.936 121.075 148.466C121.075 151.137 123.013 152.154 125.284 150.723C129.509 148.069 130.717 138.531 130.208 134.016C129.922 131.441 126.746 121.522 123.267 122.396H123.283Z" fill="white"/>
<path d="M220.572 196.679C235.805 196.647 251.117 196.536 266.286 196.87L268.192 198.587L297.324 230.618C298.61 231.349 304.011 230.951 305.917 230.983C323.23 231.174 340.56 230.888 357.873 230.92L371.073 209.444L401.777 209.237C403.032 209.174 403.413 210.334 404.016 211.192C409.21 218.759 413.245 227.645 418.439 235.291L418.566 236.706L402.714 262.807H371.073L357.873 241.332C339.162 241.109 320.435 241.427 301.723 241.268C299.659 241.252 292.908 241.65 291.605 240.902C282.234 231.079 273.545 220.587 264.19 210.763C263.904 210.461 263.316 210.461 263.237 210.398C262.665 209.794 261.95 207.536 260.759 207.346C245.447 207.314 230.134 207.409 214.838 207.346C210.136 207.33 205.435 207.346 200.733 207.346V196.679C207.325 196.679 213.949 196.679 220.556 196.679H220.572Z" fill="white" fill-opacity="0.5"/>
<path d="M740.725 199.334C740.804 199.413 740.868 200.065 741.265 200.494C750.525 210.429 759.659 220.476 768.713 230.618C770.015 231.365 776.766 230.967 778.831 230.983C795.636 231.126 812.457 230.935 829.246 230.904C830.803 230.427 840.492 211.971 842.462 209.444L873.547 209.237L874.818 209.873C879.027 217.471 884.094 224.641 888.256 232.255C889.066 233.749 890.527 235.418 889.923 237.103L874.802 262.394L873.531 263.03L842.525 262.919L829.612 241.252C811.282 241.189 792.936 241.395 774.606 241.268C770.809 241.236 766.965 241.459 763.169 241.077C754.433 231.269 745.633 221.493 736.675 211.908C736.389 211.606 735.753 211.574 735.722 211.542C735.642 211.431 735.785 210.668 735.356 210.207C734.975 209.794 732.688 207.345 732.481 207.345H672.456V196.679H737.802C738.581 197.681 739.835 198.491 740.661 199.35L740.725 199.334Z" fill="white" fill-opacity="0.5"/>
<path d="M301.739 241.268L288.778 274.809H238.092L263.237 210.398C263.237 210.398 263.904 210.477 264.19 210.763C273.545 220.587 282.25 231.079 291.605 240.902C292.908 241.65 299.659 241.252 301.723 241.268H301.739Z" fill="white"/>
<path d="M774.637 241.268L761.676 274.809H710.99L735.753 211.542C735.753 211.542 736.421 211.606 736.706 211.908C745.665 221.493 754.465 231.269 763.201 241.077C766.981 241.459 770.825 241.236 774.637 241.268Z" fill="white"/>
<path d="M30.3456 121.268L39.9396 137.815L39.6537 139.008L30.4568 154.491C29.6626 155.206 12.778 154.602 10.2206 154.538L0.388458 138.117L10.03 121.601L11.1578 121.204L30.3615 121.283L30.3456 121.268Z" fill="white" fill-opacity="0.5"/>
</g>
</svg>
