<svg width="238" height="224" viewBox="0 0 238 224" fill="none" xmlns="http://www.w3.org/2000/svg">
<path d="M194 219.353C194.736 216.779 194 214.574 193.633 212C192.53 205.382 192.897 198.397 196.206 192.515C199.515 186.632 206.868 182.956 213.118 185.162C214.589 185.529 216.059 186.632 217.53 187C220.839 187.735 223.044 186.632 223.412 182.956C223.78 178.176 220.471 173.397 216.427 170.824C204.662 164.206 179.662 170.088 174.883 188.471C172.309 197.662 175.986 207.221 180.03 215.676C180.765 217.515 181.868 219.353 182.971 220.824C186.28 224.5 192.53 224.5 194 219.353ZM23.7795 56.853C35.1766 55.75 44.7354 65.3088 43.6325 76.3383C47.6766 74.8677 48.7796 69.7206 49.1472 65.3088C49.5149 61.2647 49.5149 57.2206 48.7796 53.1765C46.5737 42.8824 38.8531 38.4706 29.2943 39.9412C24.5148 40.6765 20.1031 42.1471 15.6913 43.9853C11.2795 45.8236 5.39717 47.2941 1.7207 50.2353C0.617756 51.3383 -0.117539 53.1765 0.617756 54.6471C0.985403 55.3824 1.7207 56.1177 2.45599 56.4853C10.1766 62.3677 17.1619 57.5883 23.7795 56.853ZM138.118 85.8971C137.75 85.8971 73.0443 83.6912 63.4855 83.3236C63.4855 82.9559 53.559 48.7647 53.9266 50.9706C55.0296 50.9706 68.2649 52.0736 69.3678 52.0736C89.9561 53.5441 110.912 55.0147 131.5 56.4853C125.986 59.4265 120.103 62 114.588 64.9412C120.103 68.6177 126.353 71.1912 132.603 73.0294C130.397 74.5 127.824 75.603 125.618 77.0736C129.662 79.6471 133.706 82.5883 138.118 85.8971Z" fill="#3838CF"/>
<path d="M87.0147 84.0588C78.9264 83.6912 71.2058 83.6912 63.1176 83.3235L57.6029 63.8382C57.2353 59.4265 56.8676 55.3823 56.1323 50.9706L69.3676 52.0735C71.5735 53.9118 73.7794 56.1176 75.6176 58.3235C81.1323 65.6765 85.1764 74.5 87.0147 84.0588Z" fill="#0F0F3E"/>
<path d="M24.5147 82.5883C31.1324 79.6471 36.2794 73.7647 37.75 66.7794C39.2206 59.7941 35.9118 52.0736 29.6618 48.7647C21.2059 51.7059 12.3824 53.5441 3.55885 54.2794C2.08826 54.2794 0.985322 52.8089 1.72062 51.3383C7.60297 40.6765 15.3236 30.0147 27.4559 27.8088C51.7206 23.3971 81.8677 62 64.2206 91.0442C61.2794 95.8236 57.2353 99.5 52.4559 102.074C37.0147 110.162 22.3088 101.706 9.07355 93.9853C4.66179 91.0442 -1.22056 84.7942 7.23532 84.4265C13.1177 84.4265 18.6324 85.5294 24.5147 82.5883Z" fill="#3838CF"/>
<path d="M202.824 162C202.456 162 167.162 165.676 169.368 165.309C169.368 164.941 143.632 107.588 138.853 96.9265C143.265 99.5 147.677 102.441 152.088 105.382C152.456 102.809 152.824 99.8677 153.191 97.2942C157.235 102.809 162.015 107.588 167.53 111.265C167.897 105.015 168.265 98.7647 169 92.1471C173.412 101.338 202.824 161.265 202.824 162Z" fill="#3838CF"/>
<path d="M199.883 155.382C195.471 157.956 191.059 160.529 187.015 163.471L169.735 165.309C168.265 161.632 166.427 158.323 164.956 154.647C171.941 146.926 182.235 141.779 193.633 141.779C195.471 146.191 197.677 150.971 199.883 155.382Z" fill="#0F0F3E"/>
<path d="M185.544 201.706C185.912 194.721 189.221 187.368 195.103 183.691C200.985 180.015 209.441 180.015 214.956 184.427C215.324 193.25 216.794 202.441 219.735 210.897C220.103 212.368 222.309 212.735 223.044 211.265C226.353 206.853 229.662 202.441 231.868 197.662C234.809 191.779 236.279 185.162 234.809 178.544C232.603 167.882 222.677 160.162 212.382 156.485C183.338 145.824 158.706 162.368 156.5 183.324C155.029 200.971 168.265 211.265 180.397 220.456C184.809 223.765 192.897 226.338 189.956 218.618C188.118 212.735 185.544 208.324 185.544 201.706Z" fill="#3838CF"/>
<path d="M197.677 62C197.677 64.2059 194.735 65.3088 192.162 65.3088C186.28 66.0441 180.397 66.7794 174.147 67.147C181.133 72.6618 184.074 78.5441 185.544 80.75C171.574 75.6029 164.956 64.9412 146.206 52.4412C140.324 48.397 134.441 44.3529 130.03 38.4706L142.162 42.8823C139.956 31.1176 136.647 19.7206 135.544 7.58824C141.427 17.1471 147.309 26.7059 152.824 36.2647C156.868 24.8676 160.912 12.7353 169.735 4.64706C167.53 16.4118 166.794 27.4412 167.897 38.1029C168.265 41.7794 169.735 42.5147 172.677 41.0441C179.662 37 186.28 33.3235 193.265 29.2794C188.118 35.5294 182.971 41.7794 178.191 47.6618C176.721 49.5 174.883 52.0735 175.985 54.2794C177.456 57.2206 181.868 56.8529 192.53 57.9559C194.735 58.6912 198.044 59.7941 197.677 62Z" fill="#16FBFF"/>
<path d="M32.9708 107.221C21.2061 106.485 9.80904 99.5 0.985514 88.8382C0.250221 88.1029 0.617868 87 1.35316 86.2647C2.08846 85.5294 3.1914 85.897 3.92669 86.6323C12.0149 96.5588 22.6767 102.809 33.3384 103.544C45.4708 104.279 57.2355 98.0294 61.2796 87.7353C61.6473 86.6323 62.7502 86.2647 63.8531 86.6323C64.9561 87 65.3237 88.1029 64.9561 89.2059C59.4414 100.971 46.2061 108.324 32.9708 107.221ZM188.485 221.926C185.912 214.574 183.338 206.118 184.441 197.662C185.544 189.206 191.794 180.382 201.353 180.015C209.074 179.647 215.691 185.529 218.632 191.412C221.206 196.559 222.309 202.809 222.677 208.324C231.5 201.706 235.912 189.206 232.971 178.544C229.662 166.779 218.265 157.956 206.132 157.588C203.927 157.588 203.559 154.279 206.132 153.912C219.735 154.279 232.971 164.206 236.28 177.441C239.956 190.676 233.706 206.118 221.941 213.103C220.838 213.838 219.368 213.103 219 211.632C218.265 205.382 217.897 198.765 214.956 192.882C212.382 188.103 207.235 182.956 200.985 183.324C194 183.691 188.485 191.044 187.382 198.029C186.28 205.75 188.853 213.838 191.427 220.824C191.794 221.926 191.059 222.662 190.324 223.029C189.956 223.397 188.853 222.662 188.485 221.926Z" fill="#0F0F3E"/>
<path d="M197.677 62C197.677 64.2058 194.735 65.3088 192.162 65.3088C186.28 66.0441 180.397 66.7794 174.147 67.147C181.133 72.6617 184.074 78.5441 185.544 80.7499C171.574 75.6029 164.956 64.9411 146.206 52.4411C155.397 50.6029 163.853 47.2941 170.838 41.0441C171.574 41.0441 170.103 41.7794 192.53 28.9117C187.383 35.1617 182.235 41.4117 177.456 47.2941C175.985 49.1323 174.147 51.7059 175.25 53.9117C176.721 56.8529 181.133 56.4853 191.794 57.5882C194.735 58.6911 198.044 59.7941 197.677 62Z" fill="#00E2E6"/>
<path d="M142.897 52.0735C137.383 49.5 132.603 45.8235 128.191 41.4118C127.088 40.3088 128.191 38.103 130.03 38.4706L139.588 40.3088C135.912 28.9118 133.706 17.1471 133.338 5.38236C133.338 4.64706 133.706 3.91177 134.809 3.54412C135.544 3.17647 136.28 3.54412 137.015 4.27942L153.927 31.4853C155.397 20.0882 161.28 9.05883 169.368 0.602945C170.471 -0.499996 172.677 0.235298 172.677 1.70589V37.3677L189.956 28.9118C190.691 28.5441 191.794 28.9118 192.53 29.6471C192.897 30.3824 192.53 31.4853 191.794 32.2206C171.574 42.1471 171.941 43.25 170.103 42.1471C168.265 41.0441 169.735 41.4118 169.368 6.4853C162.383 14.9412 157.971 25.6029 156.868 36.6324C156.868 38.4706 154.294 38.8382 153.559 37.3677L137.75 12C138.485 22.2941 140.691 32.2206 144.368 41.7794C144.735 43.25 143.633 44.353 142.162 44.353L136.28 43.25C138.853 45.4559 141.794 47.2941 145.103 48.7647C145.838 49.1324 146.206 50.2353 145.838 51.3382C144.735 52.4412 143.633 52.8088 142.897 52.0735ZM101.353 98.3971C100.25 98.3971 99.5149 97.2941 99.5149 96.5588C99.5149 95.4559 100.618 94.7206 101.353 94.7206C106.5 95.0882 112.015 95.0883 117.162 94.353C118.265 94.353 119 94.7206 119.368 95.8235C119.368 96.9265 119 97.6618 117.897 98.0294C112.75 98.7647 106.868 99.1324 101.353 98.3971ZM117.162 115.309C116.427 114.941 116.059 113.838 116.427 112.735L122.309 101.706C122.677 100.971 123.78 100.603 124.883 100.971C125.618 101.338 125.985 102.441 125.618 103.544L119.735 114.574C119 115.309 117.897 115.676 117.162 115.309ZM131.133 113.838L130.397 107.221C130.397 106.118 131.133 105.382 132.235 105.382C133.338 105.382 134.074 106.118 134.074 107.221L134.809 113.838C134.809 114.941 134.074 115.676 132.971 115.676C131.868 115.676 131.133 114.574 131.133 113.838Z" fill="#0F0F3E"/>
</svg>
