<svg width="234" height="216" viewBox="0 0 234 216" fill="none" xmlns="http://www.w3.org/2000/svg">
<path d="M160.386 42.5502C160.391 52.5116 156.883 62.1557 150.48 69.7865C144.077 77.4172 135.188 82.5458 125.377 84.2703C115.566 85.9947 105.461 84.2046 96.8399 79.2147C88.2184 74.2249 81.6324 66.3548 78.2403 56.9888C74.8482 47.6228 74.8672 37.3606 78.2939 28.0072C81.7207 18.6538 88.3357 10.8082 96.9756 5.85026C105.616 0.892331 115.727 -0.860388 125.531 0.900368C135.336 2.66113 144.206 7.82259 150.581 15.477C156.93 23.0682 160.401 32.6538 160.386 42.5502Z" fill="#3838CF"/>
<path d="M50.436 86.1196C50.1285 86.1192 49.8324 86.0028 49.607 85.7936C49.3816 85.5844 49.2434 85.2978 49.2202 84.9912C48.3715 73.7695 49.4155 65.1752 52.5083 57.9443C56.5312 48.5361 64.4013 41.8354 73.0478 40.457C73.2061 40.4318 73.3679 40.438 73.5238 40.4752C73.6797 40.5125 73.8268 40.5801 73.9566 40.6742C74.0864 40.7683 74.1963 40.8871 74.2802 41.0237C74.3641 41.1603 74.4203 41.3121 74.4455 41.4704C74.4708 41.6287 74.4646 41.7905 74.4273 41.9464C74.39 42.1023 74.3224 42.2494 74.2283 42.3792C74.1342 42.5089 74.0154 42.6189 73.8788 42.7028C73.7422 42.7867 73.5904 42.8429 73.4321 42.8681C65.6069 44.1157 58.4492 50.2602 54.7534 58.9043C51.8213 65.7607 50.8369 73.9921 51.6543 84.8071C51.6786 85.1295 51.5741 85.4485 51.3635 85.6939C51.153 85.9394 50.8536 86.0912 50.5312 86.1162C50.4995 86.1185 50.4678 86.1196 50.436 86.1196ZM166.54 75.977C166.324 75.9769 166.112 75.9195 165.926 75.8108C165.739 75.7021 165.585 75.5459 165.479 75.3582C165.372 75.1704 165.318 74.9579 165.32 74.7421C165.323 74.5263 165.382 74.315 165.493 74.1298C174.826 58.5048 176.375 56.4848 176.637 52.872C176.726 51.5946 176.544 50.3126 176.101 49.1109C175.659 47.9091 174.967 46.8148 174.07 45.9003C173.174 44.9857 172.094 44.2717 170.901 43.8054C169.708 43.339 168.43 43.1309 167.151 43.1948C166.99 43.2046 166.829 43.1824 166.677 43.1296C166.525 43.0767 166.384 42.9942 166.264 42.8869C166.144 42.7795 166.046 42.6494 165.976 42.5041C165.907 42.3587 165.867 42.201 165.858 42.0401C165.85 41.8791 165.873 41.7181 165.927 41.5662C165.982 41.4144 166.065 41.2748 166.174 41.1555C166.282 41.0362 166.413 40.9396 166.559 40.8711C166.705 40.8027 166.863 40.7638 167.024 40.7568C168.648 40.6756 170.272 40.9398 171.787 41.5321C173.301 42.1244 174.674 43.0312 175.812 44.1928C176.951 45.3543 177.83 46.7442 178.392 48.2706C178.954 49.797 179.186 51.4252 179.072 53.0478C178.757 57.4018 176.895 59.8022 167.589 75.3818C167.481 75.5634 167.327 75.7137 167.143 75.8181C166.959 75.9224 166.751 75.9772 166.54 75.977Z" fill="#00E2E6"/>
<path d="M118.079 5.6919C110.788 5.69025 103.661 7.85058 97.5989 11.8997C91.5365 15.9487 86.8109 21.7047 84.0199 28.4396C81.229 35.1744 80.4979 42.5857 81.9192 49.7361C83.3405 56.8865 86.8503 63.4548 92.0047 68.6104C97.1592 73.7659 103.727 77.2771 110.877 78.6999C118.027 80.1227 125.438 79.3932 132.174 76.6037C138.909 73.8141 144.666 69.0898 148.717 63.0282C152.767 56.9667 154.929 49.8401 154.929 42.5498C154.927 32.7764 151.044 23.4038 144.134 16.4922C137.224 9.58068 127.852 5.69591 118.079 5.6919ZM143.563 19.4531C140.202 21.371 136.621 22.8753 132.899 23.9331C131.125 17.2769 128.414 11.9961 125.125 8.86475C132.236 10.3534 138.692 14.0609 143.563 19.4531ZM132.732 42.5488C132.742 47.2289 132.303 51.8991 131.422 56.4956C122.649 54.3821 113.498 54.3845 104.726 56.5024C103.844 51.9038 103.405 47.2312 103.414 42.5488C103.398 37.2956 103.954 32.0563 105.074 26.9238C113.623 28.9299 122.521 28.9299 131.07 26.9238C132.191 32.0562 132.749 37.2955 132.734 42.5488H132.732ZM118.074 76.9644C112.626 76.9644 107.76 69.5562 105.237 58.8867C113.673 56.8441 122.475 56.8429 130.913 58.8833C128.391 69.5542 123.523 76.9644 118.074 76.9644ZM105.657 24.5552C108.276 14.7847 112.914 8.1333 118.075 8.1333C123.235 8.1333 127.874 14.7871 130.493 24.5557C122.324 26.4637 113.825 26.4636 105.657 24.5552ZM111.021 8.86768C107.732 11.9995 105.022 17.2773 103.249 23.9321C99.5265 22.873 95.9461 21.3668 92.586 19.4463C97.4611 14.0639 103.914 10.3611 111.021 8.86768ZM83.6616 42.5498C83.6681 34.8581 86.2479 27.3898 90.9902 21.334C94.6583 23.4733 98.5822 25.1401 102.668 26.2949C101.516 31.6354 100.948 37.0854 100.974 42.5488C100.956 47.4473 101.408 52.3361 102.323 57.1484C98.0141 58.3938 93.892 60.2118 90.0669 62.5537C85.8782 56.7268 83.6365 49.726 83.6616 42.5498ZM91.6494 64.5991L91.5601 64.4922C95.0896 62.3573 98.8812 60.6895 102.84 59.5303C104.592 66.9609 107.474 72.8569 111.031 76.2393C103.437 74.67 96.6025 70.5653 91.6494 64.5991ZM125.105 76.2505C128.67 72.8696 131.555 66.9678 133.309 59.5273C137.267 60.6833 141.059 62.3495 144.588 64.4839C139.632 70.5204 132.755 74.6738 125.105 76.2505ZM133.826 57.1401C134.74 52.3305 135.191 47.4444 135.173 42.5488C135.2 37.0864 134.632 31.6374 133.48 26.2979C137.565 25.1436 141.488 23.4783 145.157 21.3413C149.9 27.3936 152.48 34.8601 152.485 42.5498C152.509 49.723 150.268 56.7206 146.08 62.5444C142.256 60.2022 138.136 58.3845 133.828 57.1401H133.826Z" fill="#D0FEFF"/>
<path d="M156.595 169.979L157.768 190.412L177.88 185.84L169.667 168.805L156.595 169.979Z" fill="#16FBFF"/>
<path d="M145.429 192.518L146.696 196.045L191.341 185.506L190.662 181.154L145.429 192.518Z" fill="#0F0F3E"/>
<path d="M227.942 158.13L155.095 175.79L122.358 183.722L105.534 187.8C104.593 188.028 103.617 188.067 102.661 187.915C101.706 187.762 100.79 187.421 99.9676 186.912C99.1449 186.403 98.4316 185.735 97.8691 184.948C97.3066 184.16 96.9061 183.269 96.6908 182.326L79.6244 107.749C79.4095 106.808 79.3831 105.834 79.5466 104.883C79.7101 103.932 80.0603 103.023 80.577 102.208C81.0937 101.393 81.7667 100.688 82.5572 100.134C83.3477 99.5806 84.24 99.189 85.1825 98.982L161.998 82.1158L192.379 75.4463L212.204 71.0918C213.169 70.8795 214.168 70.8654 215.14 71.0503C216.112 71.2353 217.035 71.6154 217.856 72.1677C218.676 72.7201 219.376 73.4331 219.913 74.2637C220.45 75.0943 220.812 76.0252 220.979 77L233.424 149.796C233.736 151.622 233.343 153.497 232.326 155.044C231.308 156.591 229.741 157.694 227.942 158.13Z" fill="#16FBFF"/>
<path d="M161.999 82.1157L122.358 183.722L155.095 175.79L192.379 75.4463L161.999 82.1157Z" fill="#D0FEFF"/>
<path d="M227.942 158.13L105.534 187.8C104.593 188.028 103.617 188.067 102.662 187.914C101.706 187.762 100.79 187.421 99.9677 186.912C99.145 186.402 98.4317 185.735 97.8692 184.948C97.3067 184.16 96.9062 183.269 96.6909 182.326L94.9858 174.862L232.02 141.565L233.424 149.797C233.736 151.622 233.343 153.498 232.326 155.044C231.308 156.591 229.741 157.694 227.942 158.13Z" fill="#0F0F3E"/>
<path d="M38.111 101.414L1.17981 186.476C-0.263059 190.094 3.34632 196.213 6.70618 198.184C14.2418 202.603 28.9459 210.126 49.359 215.504C51.1423 215.974 53.0339 215.806 54.706 215.028C56.3781 214.25 57.7253 212.912 58.5143 211.245C66.7452 193.834 91.0309 142.002 99.2281 119.399C100.761 115.172 99.6486 108.465 93.632 106.316C83.9523 102.859 66.1852 100.693 47.068 96.6089C45.2481 96.2247 43.3511 96.4962 41.712 97.3754C40.073 98.2546 38.7975 99.6849 38.111 101.414Z" fill="#0F0F3E"/>
<path d="M35.7501 97.7026L1.02648 184.744C0.324921 186.495 0.273855 188.439 0.882543 190.224C1.49123 192.009 2.71938 193.517 4.34435 194.475C11.88 198.894 26.5836 206.417 46.9967 211.795C48.78 212.265 50.6716 212.097 52.3438 211.319C54.0159 210.541 55.3631 209.202 56.152 207.535C64.3829 190.124 88.6686 138.293 96.8658 115.689C97.2294 114.688 97.3863 113.623 97.3272 112.559C97.268 111.495 96.9939 110.454 96.5216 109.499C96.0492 108.544 95.3882 107.695 94.5786 107.002C93.7689 106.31 92.8273 105.788 91.8107 105.469C82.0055 102.386 63.8229 96.9834 44.7057 92.8994C42.8862 92.5156 40.9897 92.7872 39.351 93.6661C37.7123 94.5449 36.437 95.9746 35.7501 97.7026Z" fill="#00E2E6"/>
<path d="M93.3794 114.42C91.9224 118.429 89.9551 123.385 87.6441 128.917C84.8414 135.636 81.5464 143.208 78.1036 150.958C68.3306 172.935 57.3238 196.368 52.795 205.946C52.3756 206.829 51.661 207.538 50.7747 207.949C49.8884 208.361 48.8861 208.45 47.941 208.202C27.6446 202.856 13.0938 195.301 6.22417 191.273C5.36796 190.763 4.72127 189.965 4.3999 189.022C4.07853 188.079 4.10347 187.052 4.47027 186.125L9.76958 172.835L39.1988 99.0786C39.562 98.1649 40.2355 97.4082 41.101 96.9415C41.9664 96.4748 42.9686 96.3278 43.9317 96.5264C46.6688 97.1144 49.4005 97.727 52.1265 98.3643C52.0017 99.6633 52.3403 100.965 53.0825 102.038C53.8248 103.111 54.9227 103.888 56.1822 104.229L76.8145 109.872C81.044 111.031 83.0503 107.279 83.6265 106.845C85.99 107.545 88.3473 108.266 90.6983 109.007C91.2371 109.176 91.7363 109.452 92.1655 109.818C92.5948 110.185 92.9453 110.635 93.1959 111.14C93.4465 111.646 93.5919 112.198 93.6235 112.761C93.655 113.325 93.572 113.889 93.3794 114.42Z" fill="#16FBFF"/>
<path d="M43.8066 144.397C42.5503 145.511 43.0078 147.258 44.9262 147.553C49.3574 148.236 45.6235 146.11 52.2856 150.127C54.29 151.335 56.0117 149.557 54.7724 147.117C53.0639 143.757 46.1504 142.315 43.8066 144.397ZM44.5224 138.322C41.5498 138.985 41.0556 137.386 42.2763 135.974C46.2431 131.384 58.4355 135.403 61.3769 143.295C62.4546 146.185 60.4492 148.365 57.7075 145.297C55.7168 143.072 52.4795 136.55 44.5224 138.322Z" fill="#D0FEFF"/>
<path d="M57.2645 130.68C49.266 125.449 42.3769 129.913 40.6669 129.166C39.5238 128.668 39.3485 126.983 40.0458 125.95C41.6728 123.537 51.3314 121.301 59.7475 125.923C64.7885 128.724 68.5375 133.382 70.1967 138.905C71.0722 141.871 69.2758 143.018 67.5414 141.174C64.2167 137.641 61.4418 133.411 57.2645 130.68Z" fill="#D0FEFF"/>
<path d="M29.8125 150.266L25.1187 163.004C24.8796 163.653 24.9041 164.37 25.187 165.002C25.4699 165.633 25.9887 166.129 26.6323 166.382L48.3931 174.972C49.0368 175.226 49.7545 175.218 50.3924 174.95C51.0303 174.681 51.5378 174.174 51.8062 173.536L55.959 163.664C56.0947 163.342 56.1653 162.996 56.1665 162.646C56.1676 162.296 56.0995 161.949 55.966 161.626C55.8325 161.303 55.6362 161.009 55.3885 160.762C55.1408 160.515 54.8466 160.32 54.523 160.187L43.0762 155.495L40.8999 151.634L33.2422 148.708C32.9149 148.583 32.566 148.524 32.2158 148.535C31.8656 148.546 31.521 148.626 31.202 148.771C30.8829 148.916 30.5959 149.122 30.3574 149.379C30.1189 149.636 29.9337 149.937 29.8125 150.266Z" fill="#00E2E6"/>
</svg>
