<svg width="150" height="151" viewBox="0 0 150 151" fill="none" xmlns="http://www.w3.org/2000/svg">
<path d="M46.875 122.375C46.875 116.34 48.9283 110.235 53.9433 106.877C59.9576 102.851 67.2025 100.5 75 100.5C82.7975 100.5 90.0425 102.851 96.0569 106.877C101.072 110.235 103.125 116.34 103.125 122.375" stroke="#00B6B9" stroke-width="8.5" stroke-linecap="round" stroke-linejoin="round"/>
<path d="M75 84.875C83.6294 84.875 90.625 77.8794 90.625 69.25C90.625 60.6206 83.6294 53.625 75 53.625C66.3706 53.625 59.375 60.6206 59.375 69.25C59.375 77.8794 66.3706 84.875 75 84.875Z" stroke="#00B6B9" stroke-width="8.5" stroke-linecap="round" stroke-linejoin="round"/>
<path d="M109.375 69.25C116.313 69.25 122.759 71.6056 128.109 75.64C132.643 79.06 134.375 84.8444 134.375 90.5238V91.125" stroke="#16FBFF" stroke-width="8.5" stroke-linecap="round" stroke-linejoin="round"/>
<path d="M109.375 53.625C116.279 53.625 121.875 48.0286 121.875 41.125C121.875 34.2214 116.279 28.625 109.375 28.625C102.471 28.625 96.875 34.2214 96.875 41.125C96.875 48.0286 102.471 53.625 109.375 53.625Z" stroke="#16FBFF" stroke-width="8.5" stroke-linecap="round" stroke-linejoin="round"/>
<path d="M40.625 69.25C33.6867 69.25 27.2404 71.6056 21.891 75.64C17.3566 79.06 15.625 84.8444 15.625 90.5238V91.125" stroke="#16FBFF" stroke-width="8.5" stroke-linecap="round" stroke-linejoin="round"/>
<path d="M40.625 53.625C47.5286 53.625 53.125 48.0286 53.125 41.125C53.125 34.2214 47.5286 28.625 40.625 28.625C33.7214 28.625 28.125 34.2214 28.125 41.125C28.125 48.0286 33.7214 53.625 40.625 53.625Z" stroke="#16FBFF" stroke-width="8.5" stroke-linecap="round" stroke-linejoin="round"/>
</svg>
