<svg width="150" height="151" viewBox="0 0 150 151" fill="none" xmlns="http://www.w3.org/2000/svg">
<path d="M65.6251 42.6875C65.6251 29.7433 55.1317 19.25 42.1876 19.25C29.2434 19.25 18.7501 29.7433 18.7501 42.6875C18.7501 55.6317 29.2434 66.125 42.1876 66.125C55.1317 66.125 65.6251 55.6317 65.6251 42.6875Z" stroke="#00B6B9" stroke-width="7.5"/>
<path d="M131.25 108.312C131.25 95.3681 120.757 84.875 107.813 84.875C94.8682 84.875 84.3751 95.3681 84.3751 108.312C84.3751 121.257 94.8682 131.75 107.813 131.75C120.757 131.75 131.25 121.257 131.25 108.312Z" stroke="#00B6B9" stroke-width="7.5"/>
<path d="M65.6251 108.312C65.6251 95.3681 55.1317 84.875 42.1876 84.875C29.2434 84.875 18.7501 95.3681 18.7501 108.312C18.7501 121.257 29.2434 131.75 42.1876 131.75C55.1317 131.75 65.6251 121.257 65.6251 108.312Z" stroke="#16FBFF" stroke-width="7.5"/>
<path d="M129.304 25.0872L125.413 21.1957C122.819 18.6014 118.613 18.6014 116.018 21.1957L95.0882 42.1255C92.3063 44.9076 90.4101 48.4511 89.6382 52.3092L87.5001 63L98.1907 60.8618C102.049 60.0902 105.593 58.1938 108.374 55.4117L129.304 34.4819C131.899 31.8876 131.899 27.6814 129.304 25.0872Z" stroke="#16FBFF" stroke-width="7.5" stroke-linejoin="round"/>
</svg>
