<svg width="150" height="151" viewBox="0 0 150 151" fill="none" xmlns="http://www.w3.org/2000/svg">
<path d="M23.6101 75.14C17.685 64.8081 14.8241 56.3718 13.099 47.8201C10.5476 35.1724 16.3863 22.8176 26.0586 14.9342C30.1466 11.6024 34.8327 12.7408 37.25 17.0775L42.7074 26.8682C47.0331 34.6286 49.1959 38.5087 48.7669 42.6224C48.3379 46.7362 45.4211 50.0866 39.5873 56.7876L23.6101 75.14ZM23.6101 75.14C35.6032 96.0519 54.424 114.883 75.36 126.89M75.36 126.89C85.6919 132.815 94.1281 135.676 102.68 137.401C115.327 139.953 127.682 134.114 135.566 124.441C138.897 120.354 137.759 115.668 133.422 113.25L123.632 107.793C115.871 103.467 111.991 101.304 107.877 101.733C103.764 102.162 100.413 105.079 93.7125 110.913L75.36 126.89Z" stroke="#16FBFF" stroke-width="7.5" stroke-linejoin="round"/>
<path d="M75 44.25H80.3569C82.8825 44.25 84.145 44.25 84.93 45.0127C85.7144 45.7755 85.7144 47.0031 85.7144 49.4583C85.7144 54.3688 85.7144 56.824 84.145 58.3495C82.9519 59.5097 81.2056 59.7875 78.2156 59.8541C76.6825 59.8882 75.9156 59.9052 75.4575 60.3606C75 60.816 75 61.544 75 63V70.2919C75 72.7469 75 73.9744 75.7844 74.7375C76.5694 75.5 77.8319 75.5 80.3569 75.5H85.7144M112.5 44.25V59.875M112.5 59.875H103.393C101.373 59.875 100.362 59.875 99.735 59.2648C99.1069 58.6546 99.1069 57.6725 99.1069 55.7083V44.25M112.5 59.875V75.5" stroke="#00B6B9" stroke-width="7.5" stroke-linecap="round" stroke-linejoin="round"/>
<path d="M62.5 27.4074C63.0562 26.7824 63.6344 26.1698 64.2337 25.5706C80.9944 8.80981 108.169 8.80981 124.929 25.5706C141.69 42.3313 141.69 69.5056 124.929 86.2662C124.33 86.8656 123.717 87.4437 123.092 88" stroke="#16FBFF" stroke-width="7.5" stroke-linecap="round"/>
</svg>
