<svg width="150" height="151" viewBox="0 0 150 151" fill="none" xmlns="http://www.w3.org/2000/svg">
<path d="M137.5 75.5C137.5 110.017 109.518 138 75.0001 138C40.4822 138 12.5001 110.017 12.5001 75.5C12.5001 40.9822 40.4822 13 75.0001 13C109.518 13 137.5 40.9822 137.5 75.5Z" stroke="#16FBFF" stroke-width="7.5"/>
<path d="M92.0732 63.3937C91.4538 58.6274 85.9807 50.9261 76.1394 50.9259C64.7038 50.9257 59.8929 57.2588 58.9165 60.4254C57.3934 64.6606 57.698 73.3687 71.1013 74.3187C87.8557 75.5062 94.5676 77.4831 93.7132 87.7369C92.8594 97.9906 83.5201 100.206 76.1394 99.9681C68.7582 99.7306 56.6821 96.3406 56.2134 87.2206M74.9676 44.25V50.9486M74.9676 99.9062V106.75" stroke="#00B6B9" stroke-width="7.5" stroke-linecap="round"/>
</svg>
